<svg xmlns="http://www.w3.org/2000/svg" viewBox="0 0 97.21 352.33"><defs><style>.cls-1{fill:#fff;}</style></defs><title>Asset 2</title><g id="Layer_2" data-name="Layer 2"><g id="Layer_1-2" data-name="Layer 1"><path class="cls-1" d="M65.21.22l-.11,32,32,.11.11-32Zm-.11,32-32-.11-.11,32,32,.11Zm-.11,32-.11,32,32,.11.11-32Zm-.11,32-32-.11-.11,32,32,.11Zm-.11,32-.11,32,32,.11.11-32Zm-.11,32-32-.11-.11,32,32,.11Zm-.11,32-.11,32,32,.11.11-32Zm-.11,32-32-.11-.11,32,32,.11Zm-.11,32-.11,32,32,.11.11-32Zm-.11,32-32-.11-.11,32,32,.11Zm-.11,32-.11,32,32,.11.11-32ZM32,352.11l.11-32L.11,320,0,352Zm.22-64,.11-32L.33,256,.22,288Zm.22-64,.11-32L.55,192,.44,224Zm.22-64,.11-32L.77,128,.66,160Zm.22-64,.11-32L1,64,.88,96Zm.22-64,.11-32L1.21,0,1.1,32Z"/></g></g></svg>